HIERARCHY
ROOT joint_0
{
	OFFSET 0.000000 0.000000 0.000000
	CHANNELS 6 Xposition Yposition Zposition Zrotation Yrotation Xrotation 
	JOINT joint_1
	{
		OFFSET 14.113007 -2.961990 123.953979
		CHANNELS 3 Zrotation Yrotation Xrotation
		JOINT joint_2
		{
			OFFSET 0.764000 -2.434006 113.871948
			CHANNELS 3 Zrotation Yrotation Xrotation
			JOINT joint_3
			{
				OFFSET 0.186996 -2.169998 113.753052
				CHANNELS 3 Zrotation Yrotation Xrotation
				JOINT joint_4
				{
					OFFSET 16.096001 -2.720001 160.853027
					CHANNELS 3 Zrotation Yrotation Xrotation
					JOINT joint_5
					{
						OFFSET 34.392006 -0.188995 92.567017
						CHANNELS 3 Zrotation Yrotation Xrotation
						End Site
						{
							OFFSET 0.000000 0.000000 0.000000
						}
					}
				}
				JOINT joint_6
				{
					OFFSET 9.183998 -36.684006 89.597046
					CHANNELS 3 Zrotation Yrotation Xrotation
					JOINT joint_7
					{
						OFFSET 0.486000 -164.365997 -28.984009
						CHANNELS 3 Zrotation Yrotation Xrotation
						JOINT joint_8
						{
							OFFSET 38.899002 -34.967010 -291.651978
							CHANNELS 3 Zrotation Yrotation Xrotation
							JOINT joint_9
							{
								OFFSET 41.714005 -45.890991 -258.857056
								CHANNELS 3 Zrotation Yrotation Xrotation
								End Site
								{
									OFFSET 0.000000 0.000000 0.000000
								}
							}
						}
					}
				}
				JOINT joint_10
				{
					OFFSET 8.867004 33.650002 90.817993
					CHANNELS 3 Zrotation Yrotation Xrotation
					JOINT joint_11
					{
						OFFSET 0.018997 164.299999 -29.368042
						CHANNELS 3 Zrotation Yrotation Xrotation
						JOINT joint_12
						{
							OFFSET 29.440994 30.887997 -293.216919
							CHANNELS 3 Zrotation Yrotation Xrotation
							JOINT joint_13
							{
								OFFSET 46.174011 54.490005 -256.422058
								CHANNELS 3 Zrotation Yrotation Xrotation
								End Site
								{
									OFFSET 0.000000 0.000000 0.000000
								}
							}
						}
					}
				}
			}
		}
	}
	JOINT joint_14
	{
		OFFSET -2.264000 -89.466995 -116.150024
		CHANNELS 3 Zrotation Yrotation Xrotation
		JOINT joint_15
		{
			OFFSET -16.400993 -17.452988 -493.781982
			CHANNELS 3 Zrotation Yrotation Xrotation
			JOINT joint_16
			{
				OFFSET -50.497004 -13.404022 -424.754013
				CHANNELS 3 Zrotation Yrotation Xrotation
				JOINT joint_17
				{
					OFFSET 198.546007 -19.341003 -89.309000
					CHANNELS 3 Zrotation Yrotation Xrotation
					End Site
					{
						OFFSET 0.000000 0.000000 0.000000
					}
				}
			}
		}
	}
	JOINT joint_18
	{
		OFFSET -0.867996 96.016006 -110.817993
		CHANNELS 3 Zrotation Yrotation Xrotation
		JOINT joint_19
		{
			OFFSET -10.130997 24.658998 -493.645020
			CHANNELS 3 Zrotation Yrotation Xrotation
			JOINT joint_20
			{
				OFFSET -48.871004 19.434999 -424.714005
				CHANNELS 3 Zrotation Yrotation Xrotation
				JOINT joint_21
				{
					OFFSET 195.579996 24.926001 -94.327003
					CHANNELS 3 Zrotation Yrotation Xrotation
					End Site
					{
						OFFSET 0.000000 0.000000 0.000000
					}
				}
			}
		}
	}
}
MOTION
Frames: 12
Frame Time: 0.016667
73.300000 -147.584000 1142.552980 2.639489 -3.530120 -1.368445 -0.673190 -0.334809 1.553808 -0.655828 0.049582 -0.354654 -0.657835 -0.017868 0.190337 -0.219754 -0.241760 0.586249 0.000000 0.000000 0.000000 -0.503284 0.899684 0.680094 -0.241099 0.848722 -0.638923 -0.165187 0.806824 -0.138690 0.000000 0.000000 0.000000 -1.607248 0.813356 0.823266 -0.046691 1.091790 -0.974154 -0.145692 -0.249714 -0.514384 0.000000 0.000000 0.000000 1.450214 2.327582 2.534902 1.575695 0.761343 0.538183 1.636307 -1.284339 0.608782 0.000000 0.000000 0.000000 -1.729368 1.348905 0.593447 -1.759465 0.546963 -0.008152 -1.712838 -0.353764 -0.779184 0.000000 0.000000 0.000000 
73.835000 -147.323000 1142.838990 2.638075 -3.238688 -1.339157 -0.726526 -0.228520 1.670959 -0.710062 0.038044 -0.424612 -0.712242 -0.028168 0.241062 -0.226879 -0.462021 0.604554 0.000000 0.000000 0.000000 -0.946025 0.815955 0.544342 -0.195596 0.679746 -0.550565 -0.126844 0.594594 -0.134186 0.000000 0.000000 0.000000 -1.321222 0.943074 0.761416 -0.075176 1.165236 -0.925564 -0.231970 -0.490949 -0.709704 0.000000 0.000000 0.000000 1.449055 2.037433 2.460271 1.560097 0.757916 0.590124 1.627915 -1.298070 0.603755 0.000000 0.000000 0.000000 -1.732484 1.052346 0.569696 -1.747232 0.542320 -0.041216 -1.702277 -0.311616 -0.779502 0.000000 0.000000 0.000000 
74.708000 -146.972000 1143.250000 2.629351 -2.828316 -1.300454 -0.800568 -0.069437 1.828178 -0.785540 0.018972 -0.519722 -0.787987 -0.046950 0.311888 -0.236398 -0.809102 0.628675 0.000000 0.000000 0.000000 -1.550195 0.716269 0.325692 -0.129223 0.463052 -0.404759 -0.061978 0.275679 -0.081667 0.000000 0.000000 0.000000 -0.971802 1.148681 0.723696 -0.118412 1.300588 -0.882877 -0.361376 -0.849697 -1.007195 0.000000 0.000000 0.000000 1.450533 1.647801 2.358844 1.543031 0.726832 0.662027 1.619490 -1.310790 0.598837 0.000000 0.000000 0.000000 -1.735052 0.658933 0.540887 -1.731059 0.504392 -0.086411 -1.687086 -0.255890 -0.779331 0.000000 0.000000 0.000000 
76.342000 -146.807010 1143.640990 2.557059 -2.354852 -1.244651 -0.882101 0.085150 1.916319 -0.869066 -0.005454 -0.574832 -0.871185 -0.043453 0.349268 -0.219940 -1.449262 0.582175 0.000000 0.000000 0.000000 -1.877330 0.724655 0.068552 -0.069286 0.404428 -0.273138 0.067680 -0.183833 0.217302 0.000000 0.000000 0.000000 -0.763130 1.480161 0.915270 -0.183922 1.583167 -0.986081 -0.539081 -1.345099 -1.415370 0.000000 0.000000 0.000000 1.478365 1.290853 2.255323 1.559230 0.561058 0.706288 1.633803 -1.292721 0.607146 0.000000 0.000000 0.000000 -1.724187 0.334723 0.496191 -1.715330 0.281825 -0.095395 -1.657327 -0.149279 -0.778691 0.000000 0.000000 0.000000 
79.003000 -146.947010 1144.001950 2.401031 -1.791166 -1.166624 -0.989288 0.267415 1.882285 -0.980511 -0.046872 -0.564556 -0.980712 0.019651 0.327802 -0.152620 -2.741546 0.400442 0.000000 0.000000 0.000000 -1.679383 0.926117 -0.267086 -0.012592 0.632176 -0.186173 0.345650 -1.022738 1.009569 0.000000 0.000000 0.000000 -0.779081 2.075402 1.591024 -0.318925 2.158557 -1.442189 -0.850446 -2.303700 -2.037792 0.000000 0.000000 0.000000 1.545634 1.007193 2.151791 1.628019 0.144448 0.704084 1.682660 -1.218294 0.636465 0.000000 0.000000 0.000000 -1.704132 0.147880 0.421637 -1.717425 -0.294260 -0.021385 -1.613211 0.075492 -0.786254 0.000000 0.000000 0.000000 
82.424000 -147.274000 1144.342040 2.183195 -1.168024 -1.075356 -1.107461 0.454658 1.775355 -1.104165 -0.094038 -0.520172 -1.101876 0.099290 0.278633 -0.065564 -4.344557 0.178414 0.000000 0.000000 0.000000 -1.203066 1.237434 -0.603793 0.036895 1.020269 -0.160669 0.690993 -2.016474 2.033579 0.000000 0.000000 0.000000 -0.882507 2.798210 2.435877 -0.473579 2.878245 -2.012105 -1.208289 -3.435364 -2.750609 0.000000 0.000000 0.000000 1.638509 0.761566 2.046518 1.729293 -0.410036 0.674321 1.754088 -1.101173 0.680043 0.000000 0.000000 0.000000 -1.671562 0.035442 0.330686 -1.721483 -1.058227 0.094186 -1.554814 0.366136 -0.795290 0.000000 0.000000 0.000000 
86.237000 -147.709000 1144.551030 1.915395 -0.616942 -0.984193 -1.177921 0.479152 1.651785 -1.176286 -0.101959 -0.472758 -1.173333 0.118211 0.234455 -0.008054 -5.356401 0.045216 0.000000 0.000000 0.000000 -0.734969 1.529299 -0.759206 0.040897 1.394979 -0.204986 0.889776 -2.490488 2.725606 0.000000 0.000000 0.000000 -0.997959 3.290098 2.880895 -0.519969 3.390064 -2.221867 -1.369482 -3.798369 -3.266282 0.000000 0.000000 0.000000 1.738460 0.561323 1.958597 1.836633 -0.866271 0.627842 1.832762 -0.976749 0.727543 0.000000 0.000000 0.000000 -1.605298 -0.047720 0.253804 -1.683887 -1.654978 0.165579 -1.474554 0.567075 -0.782317 0.000000 0.000000 0.000000 
90.569000 -148.321000 1144.489010 1.568917 -0.185348 -0.892719 -1.174207 0.171839 1.525113 -1.165927 -0.043654 -0.430607 -1.165569 0.034790 0.204303 0.001004 -5.247505 0.027606 0.000000 0.000000 0.000000 -0.295677 1.800018 -0.649391 -0.033927 1.755615 -0.349967 0.853851 -2.087074 2.949757 0.000000 0.000000 0.000000 -1.164957 3.390777 2.678938 -0.376902 3.545644 -1.763564 -1.206226 -2.719754 -3.616709 0.000000 0.000000 0.000000 1.849320 0.461090 1.904169 1.957050 -1.217927 0.544055 1.923263 -0.862177 0.779374 0.000000 0.000000 0.000000 -1.477303 -0.074006 0.209765 -1.572157 -1.999814 0.138905 -1.356475 0.580610 -0.727256 0.000000 0.000000 0.000000 
95.292000 -149.043000 1144.296020 1.171928 0.179781 -0.800861 -1.122050 -0.307262 1.389995 -1.102806 0.045620 -0.386779 -1.106443 -0.090087 0.179183 -0.014588 -4.540007 0.063486 0.000000 0.000000 0.000000 0.150084 2.047680 -0.381552 -0.153973 2.101145 -0.534583 0.669714 -1.153336 2.851430 0.000000 0.000000 0.000000 -1.390882 3.257453 2.121274 -0.118659 3.493889 -0.951772 -0.844266 -0.847540 -3.803855 0.000000 0.000000 0.000000 1.967529 0.400083 1.865238 2.083659 -1.469831 0.445226 2.020682 -0.746076 0.834446 0.000000 0.000000 0.000000 -1.315094 -0.077106 0.179025 -1.417642 -2.175727 0.062985 -1.216105 0.495163 -0.648843 0.000000 0.000000 0.000000 
99.649000 -149.587010 1144.267940 0.819333 0.500244 -0.718759 -1.039234 -0.631910 1.276079 -1.012709 0.105061 -0.349159 -1.018826 -0.165656 0.160097 -0.038710 -3.899826 0.120758 0.000000 0.000000 0.000000 0.407050 2.141492 -0.112911 -0.256586 2.256863 -0.576254 0.381405 -0.054902 2.291986 0.000000 0.000000 0.000000 -1.618469 3.019042 1.544158 0.128196 3.336244 -0.326766 -0.441129 0.790902 -3.508049 0.000000 0.000000 0.000000 2.063892 0.206978 1.810374 2.169690 -1.397601 0.406373 2.095184 -0.639592 0.878323 0.000000 0.000000 0.000000 -1.179616 -0.198686 0.136628 -1.270652 -2.076583 -0.001184 -1.092674 0.414515 -0.579209 0.000000 0.000000 0.000000 
103.242000 -149.804990 1144.506960 0.542515 0.782401 -0.648253 -0.904674 -0.658964 1.184733 -0.878248 0.110433 -0.310021 -0.884032 -0.149476 0.143251 -0.071446 -3.562154 0.201698 0.000000 0.000000 0.000000 0.301747 1.971484 0.120153 -0.321904 2.079307 -0.340596 -0.075190 1.286177 0.958356 0.000000 0.000000 0.000000 -1.846149 2.661894 1.039804 0.321461 3.051449 -0.139054 -0.012570 1.887536 -2.408967 0.000000 0.000000 0.000000 2.124867 -0.256327 1.716480 2.186639 -0.785515 0.484988 2.132656 -0.546254 0.904348 0.000000 0.000000 0.000000 -1.095707 -0.560712 0.068296 -1.142511 -1.538343 -0.030045 -0.999684 0.364098 -0.528116 0.000000 0.000000 0.000000 
106.468000 -149.845000 1144.912960 0.309215 1.019046 -0.583920 -0.739498 -0.529965 1.106259 -0.717051 0.087473 -0.271270 -0.721058 -0.086424 0.129285 -0.114208 -3.293585 0.309408 0.000000 0.000000 0.000000 0.007373 1.649762 0.367866 -0.368603 1.713714 0.020734 -0.633951 2.770814 -0.872123 0.000000 0.000000 0.000000 -2.078375 2.202473 0.522596 0.499795 2.663166 -0.153542 0.454705 2.724318 -0.802116 0.000000 0.000000 0.000000 2.163714 -0.851697 1.609814 2.163805 0.148681 0.614939 2.148922 -0.447736 0.921277 0.000000 0.000000 0.000000 -1.037638 -1.041425 -0.009737 -1.021073 -0.726386 -0.048697 -0.922877 0.329018 -0.486734 0.000000 0.000000 0.000000 
